<mxfile host="app.diagrams.net" agent="Mozilla/5.0 (Windows NT 10.0; Win64; x64) AppleWebKit/537.36 (KHTML, like Gecko) Chrome/135.0.0.0 Safari/537.36" version="26.2.14">
  <diagram name="Page-1" id="qk5_vJd2f8F1kuCM0ArW">
    <mxGraphModel dx="1584" dy="863" grid="1" gridSize="10" guides="1" tooltips="1" connect="1" arrows="1" fold="1" page="1" pageScale="1" pageWidth="827" pageHeight="1169" math="0" shadow="0">
      <root>
        <mxCell id="0" />
        <mxCell id="1" parent="0" />
        <mxCell id="b6bBiKo3ol4Vx6YMa8jQ-1" value="" style="swimlane;startSize=0;" vertex="1" parent="1">
          <mxGeometry x="170" y="70" width="630" height="1050" as="geometry" />
        </mxCell>
        <mxCell id="b6bBiKo3ol4Vx6YMa8jQ-2" value="Gestion Des Candidatures/Candidats" style="text;html=1;align=center;verticalAlign=middle;resizable=0;points=[];autosize=1;strokeColor=none;fillColor=none;" vertex="1" parent="b6bBiKo3ol4Vx6YMa8jQ-1">
          <mxGeometry x="205" y="10" width="220" height="30" as="geometry" />
        </mxCell>
        <mxCell id="b6bBiKo3ol4Vx6YMa8jQ-8" value="Gérer les Candidatures" style="ellipse;whiteSpace=wrap;html=1;" vertex="1" parent="b6bBiKo3ol4Vx6YMa8jQ-1">
          <mxGeometry x="255" y="195" width="120" height="50" as="geometry" />
        </mxCell>
        <mxCell id="b6bBiKo3ol4Vx6YMa8jQ-60" value="Ajouter une candidature" style="ellipse;whiteSpace=wrap;html=1;" vertex="1" parent="b6bBiKo3ol4Vx6YMa8jQ-1">
          <mxGeometry x="50" y="300" width="140" height="80" as="geometry" />
        </mxCell>
        <mxCell id="b6bBiKo3ol4Vx6YMa8jQ-62" value="Supprimer une candidature" style="ellipse;whiteSpace=wrap;html=1;" vertex="1" parent="b6bBiKo3ol4Vx6YMa8jQ-1">
          <mxGeometry x="440" y="300" width="140" height="80" as="geometry" />
        </mxCell>
        <mxCell id="b6bBiKo3ol4Vx6YMa8jQ-61" value="Modifier une candidature" style="ellipse;whiteSpace=wrap;html=1;" vertex="1" parent="b6bBiKo3ol4Vx6YMa8jQ-1">
          <mxGeometry x="252" y="300" width="140" height="80" as="geometry" />
        </mxCell>
        <mxCell id="b6bBiKo3ol4Vx6YMa8jQ-63" value="" style="endArrow=block;html=1;rounded=0;exitX=0.5;exitY=0;exitDx=0;exitDy=0;entryX=0.5;entryY=1;entryDx=0;entryDy=0;endFill=1;" edge="1" parent="b6bBiKo3ol4Vx6YMa8jQ-1" source="b6bBiKo3ol4Vx6YMa8jQ-60" target="b6bBiKo3ol4Vx6YMa8jQ-8">
          <mxGeometry width="50" height="50" relative="1" as="geometry">
            <mxPoint x="270" y="304" as="sourcePoint" />
            <mxPoint x="320" y="254" as="targetPoint" />
            <Array as="points">
              <mxPoint x="120" y="270" />
              <mxPoint x="315" y="270" />
            </Array>
          </mxGeometry>
        </mxCell>
        <mxCell id="b6bBiKo3ol4Vx6YMa8jQ-65" value="" style="endArrow=none;html=1;rounded=0;exitX=0.5;exitY=0;exitDx=0;exitDy=0;" edge="1" parent="b6bBiKo3ol4Vx6YMa8jQ-1" source="b6bBiKo3ol4Vx6YMa8jQ-62">
          <mxGeometry width="50" height="50" relative="1" as="geometry">
            <mxPoint x="490" y="310" as="sourcePoint" />
            <mxPoint x="310" y="270" as="targetPoint" />
            <Array as="points">
              <mxPoint x="510" y="270" />
            </Array>
          </mxGeometry>
        </mxCell>
        <mxCell id="b6bBiKo3ol4Vx6YMa8jQ-67" value="S&#39;authentifier" style="ellipse;whiteSpace=wrap;html=1;" vertex="1" parent="b6bBiKo3ol4Vx6YMa8jQ-1">
          <mxGeometry x="430" y="100" width="160" height="50" as="geometry" />
        </mxCell>
        <mxCell id="b6bBiKo3ol4Vx6YMa8jQ-68" value="" style="endArrow=none;dashed=1;html=1;rounded=0;entryX=0;entryY=1;entryDx=0;entryDy=0;" edge="1" parent="b6bBiKo3ol4Vx6YMa8jQ-1" target="b6bBiKo3ol4Vx6YMa8jQ-67">
          <mxGeometry width="50" height="50" relative="1" as="geometry">
            <mxPoint x="352" y="200" as="sourcePoint" />
            <mxPoint x="402" y="150" as="targetPoint" />
          </mxGeometry>
        </mxCell>
        <mxCell id="b6bBiKo3ol4Vx6YMa8jQ-69" value="Include" style="edgeLabel;html=1;align=center;verticalAlign=middle;resizable=0;points=[];" vertex="1" connectable="0" parent="b6bBiKo3ol4Vx6YMa8jQ-68">
          <mxGeometry x="-0.01" y="-1" relative="1" as="geometry">
            <mxPoint as="offset" />
          </mxGeometry>
        </mxCell>
        <mxCell id="b6bBiKo3ol4Vx6YMa8jQ-70" value="" style="endArrow=classic;html=1;rounded=0;exitX=0.5;exitY=0.5;exitDx=0;exitDy=0;exitPerimeter=0;entryX=0;entryY=0.5;entryDx=0;entryDy=0;" edge="1" parent="b6bBiKo3ol4Vx6YMa8jQ-1">
          <mxGeometry width="50" height="50" relative="1" as="geometry">
            <mxPoint x="-64" y="701" as="sourcePoint" />
            <mxPoint x="256" y="701" as="targetPoint" />
          </mxGeometry>
        </mxCell>
        <mxCell id="b6bBiKo3ol4Vx6YMa8jQ-72" value="Consulter la liste des Candidatures et les Candidat qui ont postulée&amp;nbsp;" style="ellipse;whiteSpace=wrap;html=1;" vertex="1" parent="b6bBiKo3ol4Vx6YMa8jQ-1">
          <mxGeometry x="50" y="400" width="220" height="80" as="geometry" />
        </mxCell>
        <mxCell id="b6bBiKo3ol4Vx6YMa8jQ-73" value="Consulter la liste des Offres ajoutée&amp;nbsp;" style="ellipse;whiteSpace=wrap;html=1;" vertex="1" parent="b6bBiKo3ol4Vx6YMa8jQ-1">
          <mxGeometry x="255" y="660" width="220" height="80" as="geometry" />
        </mxCell>
        <mxCell id="b6bBiKo3ol4Vx6YMa8jQ-75" value="Postuler aux offres&amp;nbsp;" style="ellipse;whiteSpace=wrap;html=1;" vertex="1" parent="b6bBiKo3ol4Vx6YMa8jQ-1">
          <mxGeometry x="255" y="750" width="220" height="80" as="geometry" />
        </mxCell>
        <mxCell id="b6bBiKo3ol4Vx6YMa8jQ-76" value="Suivre l&#39;état de sa candidature par mail" style="ellipse;whiteSpace=wrap;html=1;" vertex="1" parent="b6bBiKo3ol4Vx6YMa8jQ-1">
          <mxGeometry x="255" y="850" width="220" height="80" as="geometry" />
        </mxCell>
        <mxCell id="b6bBiKo3ol4Vx6YMa8jQ-78" value="" style="endArrow=none;dashed=1;html=1;rounded=0;entryX=1;entryY=0.5;entryDx=0;entryDy=0;exitX=1;exitY=0.5;exitDx=0;exitDy=0;" edge="1" parent="b6bBiKo3ol4Vx6YMa8jQ-1" source="b6bBiKo3ol4Vx6YMa8jQ-72" target="b6bBiKo3ol4Vx6YMa8jQ-67">
          <mxGeometry width="50" height="50" relative="1" as="geometry">
            <mxPoint x="320" y="450" as="sourcePoint" />
            <mxPoint x="420" y="393" as="targetPoint" />
            <Array as="points">
              <mxPoint x="590" y="440" />
            </Array>
          </mxGeometry>
        </mxCell>
        <mxCell id="b6bBiKo3ol4Vx6YMa8jQ-79" value="Include" style="edgeLabel;html=1;align=center;verticalAlign=middle;resizable=0;points=[];" vertex="1" connectable="0" parent="b6bBiKo3ol4Vx6YMa8jQ-78">
          <mxGeometry x="-0.01" y="-1" relative="1" as="geometry">
            <mxPoint as="offset" />
          </mxGeometry>
        </mxCell>
        <mxCell id="b6bBiKo3ol4Vx6YMa8jQ-48" value="Admin" style="shape=umlActor;verticalLabelPosition=bottom;verticalAlign=top;html=1;outlineConnect=0;" vertex="1" parent="1">
          <mxGeometry x="90" y="260" width="30" height="60" as="geometry" />
        </mxCell>
        <mxCell id="b6bBiKo3ol4Vx6YMa8jQ-49" value="Candidat" style="shape=umlActor;verticalLabelPosition=bottom;verticalAlign=top;html=1;outlineConnect=0;" vertex="1" parent="1">
          <mxGeometry x="91" y="740" width="30" height="60" as="geometry" />
        </mxCell>
        <mxCell id="b6bBiKo3ol4Vx6YMa8jQ-51" value="" style="endArrow=classic;html=1;rounded=0;exitX=0.5;exitY=0.5;exitDx=0;exitDy=0;exitPerimeter=0;entryX=0;entryY=0.5;entryDx=0;entryDy=0;" edge="1" parent="1" source="b6bBiKo3ol4Vx6YMa8jQ-48" target="b6bBiKo3ol4Vx6YMa8jQ-8">
          <mxGeometry width="50" height="50" relative="1" as="geometry">
            <mxPoint x="440" y="350" as="sourcePoint" />
            <mxPoint x="490" y="300" as="targetPoint" />
          </mxGeometry>
        </mxCell>
        <mxCell id="b6bBiKo3ol4Vx6YMa8jQ-66" value="" style="endArrow=none;html=1;rounded=0;" edge="1" parent="1">
          <mxGeometry width="50" height="50" relative="1" as="geometry">
            <mxPoint x="485" y="370" as="sourcePoint" />
            <mxPoint x="485" y="340" as="targetPoint" />
          </mxGeometry>
        </mxCell>
        <mxCell id="b6bBiKo3ol4Vx6YMa8jQ-71" value="" style="endArrow=classic;html=1;rounded=0;entryX=0;entryY=0.5;entryDx=0;entryDy=0;exitX=0.5;exitY=0.5;exitDx=0;exitDy=0;exitPerimeter=0;" edge="1" parent="1" source="b6bBiKo3ol4Vx6YMa8jQ-48" target="b6bBiKo3ol4Vx6YMa8jQ-72">
          <mxGeometry width="50" height="50" relative="1" as="geometry">
            <mxPoint x="140" y="320" as="sourcePoint" />
            <mxPoint x="410" y="500" as="targetPoint" />
          </mxGeometry>
        </mxCell>
        <mxCell id="b6bBiKo3ol4Vx6YMa8jQ-74" value="" style="endArrow=classic;html=1;rounded=0;exitX=0.5;exitY=0.5;exitDx=0;exitDy=0;exitPerimeter=0;entryX=0;entryY=0.5;entryDx=0;entryDy=0;" edge="1" parent="1" source="b6bBiKo3ol4Vx6YMa8jQ-49" target="b6bBiKo3ol4Vx6YMa8jQ-75">
          <mxGeometry width="50" height="50" relative="1" as="geometry">
            <mxPoint x="102" y="860" as="sourcePoint" />
            <mxPoint x="422" y="860" as="targetPoint" />
          </mxGeometry>
        </mxCell>
        <mxCell id="b6bBiKo3ol4Vx6YMa8jQ-77" value="" style="endArrow=classic;html=1;rounded=0;exitX=0.5;exitY=0.5;exitDx=0;exitDy=0;exitPerimeter=0;entryX=0;entryY=0.5;entryDx=0;entryDy=0;" edge="1" parent="1" source="b6bBiKo3ol4Vx6YMa8jQ-49" target="b6bBiKo3ol4Vx6YMa8jQ-76">
          <mxGeometry width="50" height="50" relative="1" as="geometry">
            <mxPoint x="116" y="780" as="sourcePoint" />
            <mxPoint x="435" y="870" as="targetPoint" />
          </mxGeometry>
        </mxCell>
      </root>
    </mxGraphModel>
  </diagram>
</mxfile>
